<?xml version="1.0" encoding="UTF-8"?><svg id="Layer_2" xmlns="http://www.w3.org/2000/svg" viewBox="0 0 1239.94 480.71"><defs><style>.cls-1{fill:#003534;}</style></defs><g id="Layer_1-2"><path class="cls-1" d="M1239.94,224.79c.65-62.1-91.57-112.41-151.38-82.39-4.29,2.22-9.37,5.51-13.74,6.88-8.67,2.74-13.29-5.89-18.83-11.02-15.12-14.9-39.24-23.62-61.5-25.32-26.05-2.12-50.83.42-66.27,21.73-2.92,3.21-8.57,13.07-12.64,10.57-1.59-.99-2.95-3.83-4.44-7.69-20.53-58.85-102.02-94.42-160.61-58.6-6.26,3.2-12.11,5.82-18.59,5.75-9.75-.14-17.71-5.52-27.97-6.17-9.69-.67-18.47,3.22-27.67,4.59-9.04,1.61-23.38,16.53-25.37,7.6-6-27-65.38-33-86.69-11.75-6.13,5.25-10.71,6.85-15.84-.2-23.3-42.45-69.56-65.09-117.71-45.58-7.95,2.67-15.35,3.9-23.48,2.8-28.5-3.95-67.53-12.34-88.12,9.45-6.11,5.58-12.43,7.53-21.41,6.74-38.61-6.03-72.47,3.44-101.5,28.08-3.13,2.25-6.34,4.23-9.72,5.81-10.41,5.03-4.63-17.9-10.54-30.78-3-6.54-8-16.81-20-22.41-13.91-6.5-26-8.41-40-5.6-7.41,1.48-25.88,13.64-33,11.21-8.46-2.84,2-14.76-13-28.02C48.4-8.58,28.61,1.42,4.43,16.31.81,19.28.31,22.12.28,26.01c.73,38.96-.9,393.72,0,453.61,47.05,2.14,942.74.4,1238.81.74.28-.13.46-123.75.53-124.08.22-1.11.21-1.97.25-3.16.18-27.52-.07-91.07.07-128.34Z"/></g></svg>