<?xml version="1.0" encoding="UTF-8"?><svg id="Layer_2" xmlns="http://www.w3.org/2000/svg" viewBox="0 0 1239.83 342.35"><defs><style>.cls-1{fill:#00280a;}</style></defs><g id="Layer_1-2"><path class="cls-1" d="M1202.19,8.53c-11.53,9.17-16.19,24.28-20.24,38.44-27.64-4.18-56.88,14.98-64.08,41.99-14.81-5.28-30.37-8.4-46.06-9.31-.1-1.22-.5-2.59-.5-3.65,0-3.15-.36-6.31-1.1-9.4-.81,3.43-3.22,7.1-2.78,10.57-3.41-5.1-.49-11.59-3.61-16.81-.33,4.38-2.12,9.01-1.51,13.37-2.2-3.63-2.47-7.48-4.67-11.11-.5,5.6-.68,11.22-.56,16.84-1.28.04-2.55.09-3.83.16-13.84-19.22-34.54-32.8-57.27-39.32.12-8.03-.09-16.07-.67-24.08-2.58,5.27-2.9,10.87-5.47,16.14.71-6.34-1.38-13.06-1.77-19.42-3.65,7.59-.23,17.01-4.23,24.42.51-5.05-2.31-10.37-3.26-15.36-.87,4.5-1.3,9.08-1.29,13.66,0,.36-.03.75-.07,1.16-17.54-2.27-35.55-.41-52.01,6.19-7.37-23.75-26.17-32.71-49.37-41.65-12.28-4.74-46.41,3.6-53,15-25.92-16.9-50.17-12.84-79.01-1.62-28.83,11.22-51.6,47.92-59.27,77.9-22.44-41.03-79.57-58.58-121.18-37.23-12.82-18.11-44.81-16.67-55.96,2.51-13.96-10.52-37.42-24.29-54.58-27.57-57.66-11.02-127.74,38.34-130,97-17.82-41.75-36.11-49.59-79.65-46.35,1.38-10.48,2.22-21.01,1.21-31.5-2.69,6.2-5.39,12.41-8.08,18.61,1.2-13.7,1.63-27.46,1.3-41.2-5.37,12.66-9.5,25.84-12.29,39.3-3.01-7.69-5.07-15.75-6.1-23.94-1.04,11.33-1.52,22.71-1.43,34.08.06,6.94,1.06,7.51-3.86,11.04-3.32,2.38-8.43,3.49-12.12,5.41-13.93,7.27-30.29,19.27-32.07,36.24-21.88-29.75-67.91-32.1-101.92-17.68C-5.86,143.43.11,200.35.11,200.35v142h1239.72V14.14c-5.5-13.66-26.11-14.79-37.64-5.61Z"/></g></svg>